 http://www.imdb.com/title/tt0140352/

Source: The.Insider.1999.720p.BluRay.x264-HD4U Thanks!

Subs: Arabic, Bulgarian, Croatian, Danish, Dutch, English, Farsi-Persian, Finnish, French, German, Hungarian, Italian, Norwegian, Portuguese, Romanian, Russian, Spanish, Swedish.

Sample and Screens included.

General
Complete name                            : The Insider-720p MP4 AAC x264 BRRip 1999-CC.mp4
Format                                   : MPEG-4
Format profile                           : Base Media
Codec ID                                 : isom
File size                                : 3.18 GiB
Duration                                 : 2h 37mn
Overall bit rate mode                    : Variable
Overall bit rate                         : 2 883 Kbps
Encoded date                             : UTC 2013-03-14 15:50:28

Video
ID                                       : 1
Format                                   : AVC
Format/Info                              : Advanced Video Codec
Format profile                           : High@L4.1
Format settings, CABAC                   : Yes
Format settings, ReFrames                : 5 frames
Codec ID                                 : avc1
Codec ID/Info                            : Advanced Video Coding
Duration                                 : 2h 37mn
Bit rate                                 : 2 518 Kbps
Maximum bit rate                         : 12.8 Mbps
Width                                    : 1 280 pixels
Height                                   : 536 pixels
Display aspect ratio                     : 2.40:1
Frame rate mode                          : Variable
Frame rate                               : 23.976 fps
Minimum frame rate                       : 15.873 fps
Maximum frame rate                       : 25.000 fps
Color space                              : YUV
Chroma subsampling                       : 4:2:0
Bit depth                                : 8 bits
Scan type                                : Progressive
Bits/(Pixel*Frame)                       : 0.153
Stream size                              : 2.75 GiB (87%)
Writing library                          : x264 core 112

Audio
ID                                       : 2
Format                                   : AAC
Format/Info                              : Advanced Audio Codec
Format profile                           : LC
Codec ID                                 : 40
Duration                                 : 2h 37mn
Bit rate mode                            : Variable
Bit rate                                 : 384 Kbps
Maximum bit rate                         : 689 Kbps
Channel(s)                               : 6 channels
Channel positions                        : Front: L C R, Side: L R, LFE
Sampling rate                            : 48.0 KHz
Compression mode                         : Lossy
Delay relative to video                  : 83ms
Stream size                              : 431 MiB (13%)
Language                                 : English

Enjoy...

Requested by mrmuvis 

Coming soon: Army of Shadows, Tetro, A Boy and more.